<svg width="14" height="14" viewBox="0 0 14 14" fill="none" xmlns="http://www.w3.org/2000/svg">
<g clip-path="url(#clip0_15426_16571)">
<path fill-rule="evenodd" clip-rule="evenodd" d="M7.19293 1.53433C7.11052 1.38016 6.88949 1.38016 6.80708 1.53434L1.48565 11.4905C1.40776 11.6363 1.51335 11.8125 1.67857 11.8125H12.3214C12.4867 11.8125 12.5922 11.6363 12.5144 11.4905L7.19293 1.53433ZM5.64956 0.915655C6.22641 -0.163616 7.77362 -0.163618 8.35047 0.915655L13.6719 10.8719C14.2171 11.8919 13.478 13.125 12.3214 13.125H1.67857C0.521997 13.125 -0.217069 11.8919 0.328115 10.8719L5.64956 0.915655ZM7.87501 9.62495C7.87501 10.1082 7.48327 10.5 7.00001 10.5C6.51677 10.5 6.12501 10.1082 6.12501 9.62495C6.12501 9.14169 6.51677 8.74995 7.00001 8.74995C7.48327 8.74995 7.87501 9.14169 7.87501 9.62495ZM7.65626 5.0312C7.65626 4.66877 7.36245 4.37495 7.00001 4.37495C6.63758 4.37495 6.34376 4.66877 6.34376 5.0312V7.2187C6.34376 7.58113 6.63758 7.87495 7.00001 7.87495C7.36245 7.87495 7.65626 7.58113 7.65626 7.2187V5.0312Z" fill="white"/>
</g>
<defs>
<clipPath id="clip0_15426_16571">
<rect width="14" height="14" fill="white"/>
</clipPath>
</defs>
</svg>
