<svg width="14" height="14" viewBox="0 0 14 14" fill="none" xmlns="http://www.w3.org/2000/svg">
<path fill-rule="evenodd" clip-rule="evenodd" d="M1.53125 2.1875C1.16882 2.1875 0.875 2.48132 0.875 2.84375C0.875 3.20618 1.16882 3.5 1.53125 3.5H10.7188C11.0812 3.5 11.375 3.20618 11.375 2.84375C11.375 2.48132 11.0812 2.1875 10.7188 2.1875H1.53125Z" fill="white"/>
<path d="M1.53125 6.125C1.89368 6.125 2.1875 6.41882 2.1875 6.78125V12.0312C2.1875 12.3937 1.89368 12.6875 1.53125 12.6875C1.16882 12.6875 0.875 12.3937 0.875 12.0312V6.78125C0.875 6.41882 1.16882 6.125 1.53125 6.125Z" fill="white" fill-opacity="0.5"/>
<path d="M4.375 7.21875C4.375 6.85632 4.66882 6.5625 5.03125 6.5625H12.4688C12.8312 6.5625 13.125 6.85632 13.125 7.21875C13.125 7.58118 12.8312 7.875 12.4688 7.875H5.03125C4.66882 7.875 4.375 7.58118 4.375 7.21875Z" fill="white"/>
<path d="M4.375 11.5938C4.375 11.2313 4.66882 10.9375 5.03125 10.9375H12.4688C12.8312 10.9375 13.125 11.2313 13.125 11.5938C13.125 11.9562 12.8312 12.25 12.4688 12.25H5.03125C4.66882 12.25 4.375 11.9562 4.375 11.5938Z" fill="white"/>
</svg>
