<svg width="14" height="14" viewBox="0 0 14 14" fill="none" xmlns="http://www.w3.org/2000/svg">
<path fill-rule="evenodd" clip-rule="evenodd" d="M13.125 2.40625C13.125 2.2322 13.0559 2.06528 12.9328 1.94221C12.8097 1.81914 12.6428 1.75 12.4688 1.75H1.53125C1.35721 1.75 1.19026 1.81914 1.06724 1.94221C0.944125 2.06528 0.875 2.2322 0.875 2.40625C0.875 2.5803 0.944125 2.74722 1.06724 2.87029C1.19026 2.99336 1.35721 3.0625 1.53125 3.0625H12.4688C12.6428 3.0625 12.8097 2.99336 12.9328 2.87029C13.0559 2.74722 13.125 2.5803 13.125 2.40625Z" fill="white"/>
<path d="M12.9328 6.31721C13.0559 6.44028 13.125 6.6072 13.125 6.78125C13.125 6.9553 13.0559 7.12222 12.9328 7.24529C12.8097 7.36836 12.6428 7.4375 12.4688 7.4375H1.53125C1.35721 7.4375 1.19026 7.36836 1.06724 7.24529C0.944125 7.12222 0.875 6.9553 0.875 6.78125C0.875 6.6072 0.944125 6.44028 1.06724 6.31721C1.19026 6.19414 1.35721 6.125 1.53125 6.125H12.4688C12.6428 6.125 12.8097 6.19414 12.9328 6.31721Z" fill="white" fill-opacity="0.5"/>
<path d="M12.9328 10.6922C12.8097 10.5691 12.6428 10.5 12.4688 10.5H1.53125C1.35721 10.5 1.19026 10.5691 1.06724 10.6922C0.944125 10.8153 0.875 10.9822 0.875 11.1562C0.875 11.3303 0.944125 11.4972 1.06724 11.6203C1.19026 11.7434 1.35721 11.8125 1.53125 11.8125H12.4688C12.6428 11.8125 12.8097 11.7434 12.9328 11.6203C13.0559 11.4972 13.125 11.3303 13.125 11.1562C13.125 10.9822 13.0559 10.8153 12.9328 10.6922Z" fill="white" fill-opacity="0.5"/>
</svg>
