<svg width="14" height="14" viewBox="0 0 14 14" fill="none" xmlns="http://www.w3.org/2000/svg">
<g clip-path="url(#clip0_15429_22916)">
<path fill-rule="evenodd" clip-rule="evenodd" d="M12.4688 14C13.3144 14 14 13.3144 14 12.4688V9.40625C14 8.56056 13.3144 7.875 12.4688 7.875H9.40625C8.56056 7.875 7.875 8.56056 7.875 9.40625V10.5H4.375C3.89174 10.5 3.5 10.1082 3.5 9.625V6.125H4.59375C5.43944 6.125 6.125 5.43944 6.125 4.59375L6.125 1.53125C6.125 0.685563 5.43944 0 4.59375 0H1.53125C0.685563 0 0 0.685563 0 1.53125V4.59375C0 5.43944 0.685563 6.125 1.53125 6.125H2.1875V9.625C2.1875 10.8331 3.16689 11.8125 4.375 11.8125H7.875V12.4688C7.875 13.3144 8.56056 14 9.40625 14H12.4688ZM12.6875 12.4688C12.6875 12.5896 12.5896 12.6875 12.4688 12.6875H9.40625C9.28544 12.6875 9.1875 12.5896 9.1875 12.4688V9.40625C9.1875 9.28544 9.28544 9.1875 9.40625 9.1875H12.4688C12.5896 9.1875 12.6875 9.28544 12.6875 9.40625V12.4688ZM4.8125 4.59375C4.8125 4.71459 4.71459 4.8125 4.59375 4.8125H1.53125C1.41041 4.8125 1.3125 4.71459 1.3125 4.59375V1.53125C1.3125 1.41041 1.41041 1.3125 1.53125 1.3125H4.59375C4.71459 1.3125 4.8125 1.41041 4.8125 1.53125V4.59375Z" fill="white"/>
</g>
<defs>
<clipPath id="clip0_15429_22916">
<rect width="14" height="14" fill="white" transform="matrix(0 -1 -1 0 14 14)"/>
</clipPath>
</defs>
</svg>
