<svg width="14" height="14" viewBox="0 0 14 14" fill="none" xmlns="http://www.w3.org/2000/svg">
<path fill-rule="evenodd" clip-rule="evenodd" d="M1.75295 2.18754C1.75295 2.03599 1.67453 1.89524 1.54567 1.81549C1.41681 1.73574 1.25585 1.72834 1.12022 1.79596L0.242444 2.23349C0.0261758 2.34129 -0.0617535 2.604 0.0460481 2.82027C0.15385 3.03654 0.416559 3.12447 0.632828 3.01667L0.87787 2.89452V5.25032H0.437636C0.195989 5.25032 9.62698e-05 5.44621 9.62698e-05 5.68786C9.62698e-05 5.9295 0.195989 6.12539 0.437636 6.12539H2.19319C2.43484 6.12539 2.63073 5.9295 2.63073 5.68786C2.63073 5.44621 2.43484 5.25032 2.19319 5.25032H1.75295V2.18754ZM4.375 2.84375C4.375 2.48132 4.66882 2.1875 5.03125 2.1875H12.4688C12.8312 2.1875 13.125 2.48132 13.125 2.84375C13.125 3.20618 12.8312 3.5 12.4688 3.5H5.03125C4.66882 3.5 4.375 3.20618 4.375 2.84375ZM4.375 7.21875C4.375 6.85632 4.66882 6.5625 5.03125 6.5625H12.4688C12.8312 6.5625 13.125 6.85632 13.125 7.21875C13.125 7.58118 12.8312 7.875 12.4688 7.875H5.03125C4.66882 7.875 4.375 7.58118 4.375 7.21875ZM4.375 11.5938C4.375 11.2313 4.66882 10.9375 5.03125 10.9375H12.4688C12.8312 10.9375 13.125 11.2313 13.125 11.5938C13.125 11.9562 12.8312 12.25 12.4688 12.25H5.03125C4.66882 12.25 4.375 11.9562 4.375 11.5938ZM0.808848 9.03L0.811153 9.02659C0.814901 9.02116 0.822329 9.01084 0.833344 8.99719C0.855753 8.96936 0.890636 8.93077 0.936906 8.89245C1.02917 8.81589 1.15245 8.75061 1.31272 8.75061C1.48362 8.75061 1.58127 8.81064 1.64099 8.87836C1.70773 8.95405 1.75273 9.07025 1.75273 9.20771C1.75273 9.60356 1.51723 9.80464 1.0527 10.1504L1.02204 10.1732C0.605413 10.4828 0.000106823 10.9326 0.000106823 11.8124C0.000106823 11.9284 0.0462046 12.0397 0.128259 12.1218C0.210314 12.2039 0.321604 12.25 0.437646 12.25H2.1902C2.43185 12.25 2.62781 12.0541 2.62781 11.8124C2.62781 11.5708 2.43191 11.3749 2.19027 11.3749H1.00285C1.11806 11.2023 1.31024 11.0496 1.57522 10.8524L1.61605 10.822C2.02795 10.5165 2.62781 10.0713 2.62781 9.20771C2.62781 8.88807 2.52428 8.55697 2.29737 8.29961C2.06343 8.0343 1.72232 7.87554 1.31274 7.87553C0.892518 7.87553 0.578261 8.05291 0.3781 8.21901C0.278157 8.30194 0.203116 8.38468 0.152149 8.44788C0.126475 8.47972 0.106354 8.50729 0.0917236 8.52842C0.0843932 8.53901 0.0783955 8.54804 0.0737247 8.55526L0.0676967 8.56473L0.065417 8.56839L0.0644598 8.56995L0.0638216 8.571C-0.0615702 8.77756 0.00403738 9.04698 0.210604 9.17236C0.415634 9.29688 0.682278 9.23291 0.808848 9.03ZM0.437602 8.7983L0.0638216 8.571C0.0638216 8.571 0.063624 8.57132 0.437602 8.7983Z" fill="white"/>
</svg>
