<svg width="14" height="14" viewBox="0 0 14 14" fill="none" xmlns="http://www.w3.org/2000/svg">
<path fill-rule="evenodd" clip-rule="evenodd" d="M1.75 3.5C2.23325 3.5 2.625 3.10825 2.625 2.625C2.625 2.14175 2.23325 1.75 1.75 1.75C1.26675 1.75 0.875 2.14175 0.875 2.625C0.875 3.10825 1.26675 3.5 1.75 3.5ZM5.03125 2.1875C4.66882 2.1875 4.375 2.48132 4.375 2.84375C4.375 3.20618 4.66882 3.5 5.03125 3.5H12.4688C12.8312 3.5 13.125 3.20618 13.125 2.84375C13.125 2.48132 12.8312 2.1875 12.4688 2.1875H5.03125ZM5.03125 6.5625C4.66882 6.5625 4.375 6.85632 4.375 7.21875C4.375 7.58118 4.66882 7.875 5.03125 7.875H12.4688C12.8312 7.875 13.125 7.58118 13.125 7.21875C13.125 6.85632 12.8312 6.5625 12.4688 6.5625H5.03125ZM5.03125 10.9375C4.66882 10.9375 4.375 11.2313 4.375 11.5938C4.375 11.9562 4.66882 12.25 5.03125 12.25H12.4688C12.8312 12.25 13.125 11.9562 13.125 11.5938C13.125 11.2313 12.8312 10.9375 12.4688 10.9375H5.03125ZM2.625 7C2.625 7.48325 2.23325 7.875 1.75 7.875C1.26675 7.875 0.875 7.48325 0.875 7C0.875 6.51675 1.26675 6.125 1.75 6.125C2.23325 6.125 2.625 6.51675 2.625 7ZM1.75 12.25C2.23325 12.25 2.625 11.8583 2.625 11.375C2.625 10.8917 2.23325 10.5 1.75 10.5C1.26675 10.5 0.875 10.8917 0.875 11.375C0.875 11.8583 1.26675 12.25 1.75 12.25Z" fill="white"/>
</svg>
