<svg width="16" height="16" viewBox="0 0 16 16" fill="none" xmlns="http://www.w3.org/2000/svg">
<path d="M8.04817 2C11.4139 2.00001 13.7598 3.18639 13.7602 4.25205C13.7602 4.66424 13.4105 5.09869 12.7783 5.47305C12.6739 5.53465 12.5639 5.59257 12.4538 5.64718C11.3473 6.19265 9.74117 6.5062 8.04817 6.50621C6.3558 6.50621 4.74972 6.19264 3.6425 5.64718C3.5318 5.59264 3.42307 5.53423 3.32021 5.47411C2.68567 5.09902 2.33616 4.66431 2.33616 4.25205C2.33654 3.18642 4.6824 2 8.04817 2Z" fill="white"/>
<path d="M13.7247 8.45134C13.7246 9.51632 11.3787 10.7044 8.01265 10.7044C4.64692 10.7043 2.30178 9.51701 2.30171 8.45134V6.36181C2.30743 6.36671 2.31425 6.37063 2.31997 6.37553C2.34643 6.39653 2.37266 6.41784 2.40055 6.43885C2.40982 6.44583 2.41957 6.45296 2.42955 6.45995C2.46529 6.48654 2.50233 6.51357 2.54021 6.54016C2.55023 6.54717 2.56097 6.5532 2.57028 6.56021C2.60096 6.58116 2.63272 6.60258 2.66482 6.62353C2.677 6.63124 2.69025 6.64009 2.70242 6.6478C2.74533 6.6751 2.78879 6.7014 2.83456 6.728C2.95695 6.79947 3.08532 6.86898 3.21486 6.93273C4.44025 7.53631 6.18977 7.88252 8.01373 7.88252C9.83913 7.88252 11.5879 7.53629 12.8126 6.93273C12.9415 6.86893 13.0704 6.79986 13.195 6.72695C13.2407 6.70041 13.284 6.67292 13.3261 6.64569C13.3383 6.63798 13.3501 6.63053 13.3616 6.62353C13.3952 6.6018 13.4292 6.57983 13.4615 6.5581C13.47 6.5525 13.4783 6.54645 13.4862 6.54016C13.5255 6.51285 13.5625 6.48515 13.599 6.45784C13.6068 6.45161 13.6148 6.44612 13.6226 6.4399C13.652 6.41746 13.6806 6.39585 13.7085 6.37342C13.7135 6.36926 13.7197 6.36491 13.7247 6.36075V8.45134Z" fill="white"/>
<path d="M14.8558 8.78032C15.0719 8.98422 15.761 9.63591 15.8541 9.84752L15.8563 9.85174L15.8606 9.86229L15.8692 9.88023C16.0197 10.1561 16.0352 10.1936 15.9419 10.5939C15.7841 11.271 14.4785 12.5242 13.2303 13.0682C11.8509 13.6697 10.0075 14 8.03929 14C6.07217 13.9999 4.22911 13.6697 2.85046 13.0682C1.60311 12.5242 0.217146 11.2139 0.0186929 10.5414C-0.0161046 10.0661 -0.0119757 10.0623 0.115658 9.82878C0.115658 9.82878 0.03834 10.0067 0.130698 9.79501C0.223056 9.58335 0.926751 8.98358 1.14221 8.78032V9.13069C1.14178 10.0258 2.19645 10.7237 3.52539 11.3034C4.74217 11.8333 6.34898 12.1265 8.05139 12.1265C9.75392 12.1265 11.3618 11.8334 12.5785 11.3034C13.9073 10.7237 14.8555 10.0275 14.8558 9.13175V8.78032Z" fill="white" fill-opacity="0.5"/>
</svg>
