<svg width="14" height="14" viewBox="0 0 14 14" fill="none" xmlns="http://www.w3.org/2000/svg">
<path d="M9.30078 0.917477L7.92383 2.29443H1.60645C1.47984 2.29449 1.3771 2.39733 1.37695 2.52392V12.1636C1.37697 12.2903 1.47975 12.393 1.60645 12.3931H11.2461C11.3728 12.393 11.4756 12.2903 11.4756 12.1636V6.30517L12.8525 4.92822V12.1636C12.8525 13.0508 12.1333 13.7699 11.2461 13.77H1.60645C0.719228 13.77 1.54451e-05 13.0508 0 12.1636V2.52392C0.000149039 1.63681 0.71931 0.917538 1.60645 0.917477H9.30078ZM11.1494 0.367672C11.6396 -0.122558 12.4346 -0.122556 12.9248 0.367672L13.6328 1.0747C14.1228 1.56484 14.1227 2.35988 13.6328 2.85009L8.02148 8.46142C7.87069 8.61222 7.68353 8.72214 7.47852 8.78076L5.35938 9.38623C5.14863 9.44642 4.92153 9.38784 4.7666 9.23291C4.61166 9.07793 4.5531 8.85086 4.61328 8.64013L5.21875 6.52099C5.27734 6.31616 5.38743 6.12974 5.53809 5.979L11.1494 0.367672ZM6.31055 6.75146C6.29109 6.77097 6.27711 6.79522 6.26953 6.82177L5.90527 8.09423L7.17773 7.73095C7.20436 7.72339 7.22944 7.70858 7.24902 7.68896L11.3457 3.59228L10.4072 2.65381L6.31055 6.75146ZM12.1523 1.14013C12.0887 1.0765 11.9855 1.0765 11.9219 1.14013L11.0986 1.9624L12.0371 2.90088L12.8604 2.07763C12.9237 2.01402 12.9238 1.91071 12.8604 1.84716L12.1523 1.14013Z" fill="white"/>
</svg>
