<svg width="14" height="14" viewBox="0 0 14 14" fill="none" xmlns="http://www.w3.org/2000/svg">
<path fill-rule="evenodd" clip-rule="evenodd" d="M0 3.28125C0 2.43556 0.685564 1.75 1.53125 1.75H12.4688C13.3144 1.75 14 2.43556 14 3.28125V10.7188C14 11.5644 13.3144 12.25 12.4688 12.25H1.53125C0.685563 12.25 0 11.5644 0 10.7188V3.28125ZM1.53125 3.0625C1.41044 3.0625 1.3125 3.16044 1.3125 3.28125V10.7188C1.3125 10.8396 1.41044 10.9375 1.53125 10.9375H12.4688C12.5896 10.9375 12.6875 10.8396 12.6875 10.7188V3.28125C12.6875 3.16044 12.5896 3.0625 12.4688 3.0625H1.53125ZM3.0625 5.46875C3.0625 5.10632 3.35632 4.8125 3.71875 4.8125H9.84375C10.2062 4.8125 10.5 5.10632 10.5 5.46875C10.5 5.83118 10.2062 6.125 9.84375 6.125H3.71875C3.35632 6.125 3.0625 5.83118 3.0625 5.46875ZM3.71875 7.4375C3.35632 7.4375 3.0625 7.73132 3.0625 8.09375C3.0625 8.45618 3.35632 8.75 3.71875 8.75H7.21875C7.58118 8.75 7.875 8.45618 7.875 8.09375C7.875 7.73132 7.58118 7.4375 7.21875 7.4375H3.71875Z" fill="white"/>
</svg>
