<svg width="14" height="14" viewBox="0 0 14 14" fill="none" xmlns="http://www.w3.org/2000/svg">
<g clip-path="url(#clip0_15429_22893)">
<path d="M13.1719 3.44351V10.5566C13.1719 11.6383 12.2971 12.5189 11.2224 12.5189C10.1477 12.5189 9.27287 11.6383 9.27287 10.5566C9.27287 9.47495 10.1477 8.59438 11.2224 8.59438C11.5782 8.59438 11.9096 8.69249 12.1972 8.85929V5.5L7.56696 6.72846V11.5377C7.56696 12.6194 6.69211 13.5 5.61743 13.5C4.54276 13.5 3.66791 12.6194 3.66791 11.5377C3.66791 10.456 4.54276 9.57547 5.61743 9.57547C5.97321 9.57547 6.30463 9.67358 6.5922 9.84037V4.91508C6.5922 4.69187 6.74207 4.49687 6.95651 4.44047L12.5615 2.96877C12.7077 2.93075 12.8624 2.96263 12.9831 3.05584C13.1037 3.14905 13.1719 3.29143 13.1719 3.44351ZM4.39906 7.61325V3.15316L5.45545 2.88703C6.26815 2.68344 6.83597 1.66711 6.83597 1.37891V0.745393C6.83597 0.669354 6.80185 0.598223 6.74215 0.551615C6.68366 0.50501 6.60568 0.489067 6.53256 0.507464L3.60828 1.24331C3.50105 1.2703 3.42429 1.36841 3.42429 1.48123V5.91596C3.13672 5.74917 2.80531 5.65105 2.44952 5.65105C1.37485 5.65105 0.5 6.53162 0.5 7.61332C0.5 8.69501 1.37485 9.57558 2.44952 9.57558C3.5242 9.57558 4.39906 8.69494 4.39906 7.61325Z" fill="white"/>
</g>
<defs>
<clipPath id="clip0_15429_22893">
<rect width="14" height="14" fill="white"/>
</clipPath>
</defs>
</svg>
