<svg width="16" height="14" viewBox="0 0 16 14" fill="none" xmlns="http://www.w3.org/2000/svg">
<path d="M9.99652 12.9788H14.6566C14.931 12.9788 15.0479 12.8957 15.3223 12.5955C15.5967 12.2953 15.5443 12.0677 15.2274 11.5911C14.1298 9.94003 13.0321 8.13888 11.9345 6.33772C11.6601 5.88743 11.1113 5.88743 10.6997 6.33772C10.4939 6.71296 10.2538 7.05067 10.0136 7.38839C9.77354 7.72611 9.53343 8.06383 9.32762 8.43907C9.05322 8.88936 8.66508 9.3374 8.66508 9.3374C8.52788 9.48749 8.36719 9.48974 8.22999 9.33965C8.16139 9.2646 8.09278 9.15203 8.02418 9.03945C7.95558 8.92688 7.88698 8.81431 7.81837 8.73926C7.54396 8.28897 6.99515 8.28897 6.58353 8.73926C6.24053 9.18955 5.93182 9.67736 5.62311 10.1652C5.31441 10.653 5.00568 11.1408 4.66267 11.5911C4.46802 11.8466 4.42461 12.0812 4.66267 12.3416C4.90073 12.602 5.07428 12.7919 5.34869 12.7919H7.40676C7.73409 13.0313 8.65798 13.0081 9.43662 12.9886C9.63711 12.9836 9.82796 12.9788 9.99652 12.9788Z" fill="white"/>
<path fill-rule="evenodd" clip-rule="evenodd" d="M1.75 1.5C1.61193 1.5 1.5 1.61193 1.5 1.75V12.25C1.5 12.3881 1.61193 12.5 1.75 12.5H2.69087C2.85714 12.5 2.89732 12.5 2.97869 12.5H14.25C14.5 12.5 14.5 12.25 14.5 12.25V1.75C14.5 1.61193 14.3881 1.5 14.25 1.5H1.75ZM16 12.25V1.75C16 0.7835 15.2165 0 14.25 0H1.75C0.783501 0 0 0.7835 0 1.75V12.25C0 13.2165 0.783502 14 1.75 14H14.25C15.2165 14 16 13.2165 16 12.25ZM7 5C7 6.10457 6.10457 7 5 7C3.89543 7 3 6.10457 3 5C3 3.89543 3.89543 3 5 3C6.10457 3 7 3.89543 7 5Z" fill="white"/>
</svg>
