<svg width="14" height="14" viewBox="0 0 14 14" fill="none" xmlns="http://www.w3.org/2000/svg">
<g clip-path="url(#clip0_15429_22887)">
<path fill-rule="evenodd" clip-rule="evenodd" d="M1.53125 1.3125C1.41044 1.3125 1.3125 1.41044 1.3125 1.53125V8.96875C1.3125 9.08956 1.41044 9.1875 1.53125 9.1875H12.4688C12.5896 9.1875 12.6875 9.08956 12.6875 8.96875V1.53125C12.6875 1.41044 12.5896 1.3125 12.4688 1.3125H1.53125ZM0 1.53125C0 0.685564 0.685563 0 1.53125 0H12.4688C13.3144 0 14 0.685564 14 1.53125V8.96875C14 9.81444 13.3144 10.5 12.4688 10.5H1.53125C0.685564 10.5 0 9.81444 0 8.96875V1.53125Z" fill="white"/>
<path d="M5.25 7.48865V3.01135C5.25 2.84132 5.43549 2.7363 5.5813 2.82378L9.31237 5.06242C9.45398 5.14739 9.45398 5.35261 9.31237 5.43758L5.5813 7.67622C5.43549 7.7637 5.25 7.65868 5.25 7.48865Z" fill="white"/>
<path d="M5.5 12.5C5.5 13.0523 5.05228 13.5 4.5 13.5C3.94772 13.5 3.5 13.0523 3.5 12.5C3.5 11.9477 3.94772 11.5 4.5 11.5C5.05228 11.5 5.5 11.9477 5.5 12.5Z" fill="white"/>
<path d="M2.56543 12C2.5242 12.16 2.5 12.3271 2.5 12.5C2.5 12.6729 2.5242 12.84 2.56543 13H0.5C0.223858 13 0 12.7761 0 12.5C0 12.2239 0.223858 12 0.5 12H2.56543Z" fill="white"/>
<path d="M5.36523 12C5.45047 12.1472 5.5 12.3177 5.5 12.5C5.5 12.6823 5.45047 12.8528 5.36523 13H3.63477C3.54953 12.8528 3.5 12.6823 3.5 12.5C3.5 12.3177 3.54953 12.1472 3.63477 12H5.36523Z" fill="white"/>
<path d="M13.5 12C13.7761 12 14 12.2239 14 12.5C14 12.7761 13.7761 13 13.5 13H6.43457C6.4758 12.84 6.5 12.6729 6.5 12.5C6.5 12.3271 6.4758 12.16 6.43457 12H13.5Z" fill="white"/>
</g>
<defs>
<clipPath id="clip0_15429_22887">
<rect width="14" height="14" fill="white"/>
</clipPath>
</defs>
</svg>
