<svg width="14" height="14" viewBox="0 0 14 14" fill="none" xmlns="http://www.w3.org/2000/svg">
<g clip-path="url(#clip0_15429_24111)">
<path fill-rule="evenodd" clip-rule="evenodd" d="M4.15625 0C4.51869 0 4.8125 0.293813 4.8125 0.65625V1.75H9.1875V0.65625C9.1875 0.293813 9.48131 0 9.84375 0C10.2062 0 10.5 0.293813 10.5 0.65625V1.75H11.5938C12.4394 1.75 13.125 2.43556 13.125 3.28125V12.4688C13.125 13.3144 12.4394 14 11.5938 14H2.40625C1.56056 14 0.875 13.3144 0.875 12.4688V3.28125C0.875 2.43556 1.56056 1.75 2.40625 1.75H3.5V0.65625C3.5 0.293813 3.79381 0 4.15625 0ZM11.5938 3.0625C11.7146 3.0625 11.8125 3.16044 11.8125 3.28125V5.25H2.1875V3.28125C2.1875 3.16044 2.28544 3.0625 2.40625 3.0625H11.5938ZM2.1875 6.5625V12.4688C2.1875 12.5896 2.28544 12.6875 2.40625 12.6875H11.5938C11.7146 12.6875 11.8125 12.5896 11.8125 12.4688V6.5625H2.1875Z" fill="white"/>
</g>
<defs>
<clipPath id="clip0_15429_24111">
<rect width="14" height="14" fill="white"/>
</clipPath>
</defs>
</svg>
