<svg width="14" height="14" viewBox="0 0 14 14" fill="none" xmlns="http://www.w3.org/2000/svg">
<g clip-path="url(#clip0_15429_24107)">
<path fill-rule="evenodd" clip-rule="evenodd" d="M7 0.4375C10.6132 0.437506 13.5437 3.35765 13.5616 6.96667C13.5622 6.97772 13.5634 6.98882 13.5634 7V8.01855C13.5632 9.28051 12.5395 10.3031 11.2776 10.3035C10.4864 10.3035 9.78838 9.90171 9.37805 9.29089C8.77706 9.91461 7.93435 10.3042 7 10.3043C5.17564 10.3041 3.69675 8.82436 3.69653 7C3.69675 5.17564 5.17564 3.69675 7 3.69653C8.82435 3.69676 10.3041 5.17565 10.3043 7V8.01855C10.3044 8.55585 10.7403 8.99097 11.2776 8.99097C11.8146 8.99062 12.2507 8.55564 12.2509 8.01855L12.25 7C12.25 4.10052 9.89948 1.75001 7 1.75C4.10051 1.75 1.75001 4.10052 1.75 7C1.75001 9.89948 4.10052 12.25 7 12.25C7.84734 12.25 8.64624 12.0497 9.35327 11.6946C9.6771 11.532 10.0716 11.663 10.2343 11.9868C10.3966 12.3106 10.2657 12.7052 9.94202 12.8678C9.0564 13.3126 8.0564 13.5625 7 13.5625C3.37564 13.5625 0.437506 10.6244 0.4375 7C0.437505 3.37564 3.37564 0.4375 7 0.4375ZM7 5.00903C5.90052 5.00925 5.00925 5.90052 5.00903 7C5.00925 8.09948 5.90052 8.9916 7 8.99182C8.09947 8.99159 8.9916 8.09948 8.99182 7C8.9916 5.90052 8.09947 5.00926 7 5.00903Z" fill="white"/>
</g>
<defs>
<clipPath id="clip0_15429_24107">
<rect width="14" height="14" fill="white"/>
</clipPath>
</defs>
</svg>
