<svg width="14" height="14" viewBox="0 0 14 14" fill="none" xmlns="http://www.w3.org/2000/svg">
<g clip-path="url(#clip0_15429_24069)">
<path fill-rule="evenodd" clip-rule="evenodd" d="M14 11.5938C14 12.4394 13.3144 13.125 12.4688 13.125L1.53125 13.125C0.685564 13.125 0 12.4394 0 11.5938L0 9.40625C0 8.56056 0.685563 7.875 1.53125 7.875L12.4688 7.875C13.3144 7.875 14 8.56056 14 9.40625V11.5938ZM12.4688 11.8125C12.5896 11.8125 12.6875 11.7146 12.6875 11.5938V9.40625C12.6875 9.28544 12.5896 9.1875 12.4688 9.1875L1.53125 9.1875C1.41044 9.1875 1.3125 9.28544 1.3125 9.40625L1.3125 11.5938C1.3125 11.7146 1.41044 11.8125 1.53125 11.8125L12.4688 11.8125Z" fill="white"/>
<path fill-rule="evenodd" clip-rule="evenodd" d="M14 4.59375C14 5.43944 13.3144 6.125 12.4688 6.125L1.53125 6.125C0.685564 6.125 0 5.43944 0 4.59375L0 2.40625C0 1.56056 0.685563 0.875 1.53125 0.875L12.4688 0.875C13.3144 0.875 14 1.56056 14 2.40625V4.59375ZM12.4688 4.8125C12.5896 4.8125 12.6875 4.71456 12.6875 4.59375V2.40625C12.6875 2.28544 12.5896 2.1875 12.4688 2.1875L1.53125 2.1875C1.41044 2.1875 1.3125 2.28544 1.3125 2.40625L1.3125 4.59375C1.3125 4.71456 1.41044 4.8125 1.53125 4.8125L12.4688 4.8125Z" fill="white"/>
</g>
<defs>
<clipPath id="clip0_15429_24069">
<rect width="14" height="14" fill="white" transform="matrix(1 0 0 -1 0 14)"/>
</clipPath>
</defs>
</svg>
