<svg width="14" height="14" viewBox="0 0 14 14" fill="none" xmlns="http://www.w3.org/2000/svg">
<g clip-path="url(#clip0_15429_24047)">
<path fill-rule="evenodd" clip-rule="evenodd" d="M2.1875 6.80313V2.40625C2.1875 2.34824 2.21055 2.2926 2.25157 2.25157C2.2926 2.21055 2.34824 2.1875 2.40625 2.1875H6.80313C6.83187 2.18745 6.86034 2.19306 6.88692 2.20402C6.9135 2.21498 6.93765 2.23107 6.958 2.25137L12.4267 7.72012C12.4471 7.74044 12.4633 7.76458 12.4744 7.79116C12.4854 7.81774 12.491 7.84623 12.491 7.875C12.491 7.90377 12.4854 7.93226 12.4744 7.95884C12.4633 7.98542 12.4471 8.00956 12.4267 8.02988L8.02988 12.4267C8.00956 12.4471 7.98542 12.4633 7.95884 12.4744C7.93226 12.4854 7.90377 12.491 7.875 12.491C7.84623 12.491 7.81774 12.4854 7.79116 12.4744C7.76458 12.4633 7.74044 12.4471 7.72012 12.4267L2.25137 6.958C2.23107 6.93765 2.21498 6.9135 2.20402 6.88692C2.19306 6.86034 2.18745 6.83187 2.1875 6.80313ZM0.875 6.80313V2.40625C0.875 1.561 1.561 0.875 2.40625 0.875H6.80313C7.20913 0.875 7.59937 1.036 7.88637 1.32388L13.3551 6.79263C13.642 7.07976 13.8032 7.46908 13.8032 7.875C13.8032 8.28092 13.642 8.67024 13.3551 8.95738L8.95738 13.3551C8.67024 13.642 8.28092 13.8032 7.875 13.8032C7.46908 13.8032 7.07976 13.642 6.79263 13.3551L1.32388 7.88637C1.18156 7.74416 1.06866 7.57529 0.991637 7.38942C0.91462 7.20355 0.874985 7.00432 0.875 6.80313ZM5.25 4.375C5.01793 4.375 4.79538 4.46719 4.63128 4.63128C4.46719 4.79538 4.375 5.01793 4.375 5.25C4.375 5.48207 4.46719 5.70462 4.63128 5.86872C4.79538 6.03281 5.01793 6.125 5.25 6.125C5.48207 6.125 5.70462 6.03281 5.86872 5.86872C6.03281 5.70462 6.125 5.48207 6.125 5.25C6.125 5.01793 6.03281 4.79538 5.86872 4.63128C5.70462 4.46719 5.48207 4.375 5.25 4.375Z" fill="white"/>
</g>
<defs>
<clipPath id="clip0_15429_24047">
<rect width="14" height="14" fill="white"/>
</clipPath>
</defs>
</svg>
