<svg width="14" height="14" viewBox="0 0 14 14" fill="none" xmlns="http://www.w3.org/2000/svg">
<path fill-rule="evenodd" clip-rule="evenodd" d="M1.53125 2.1875C1.16882 2.1875 0.875 2.48132 0.875 2.84375C0.875 3.20618 1.16882 3.5 1.53125 3.5H7.21875C7.58117 3.5 7.875 3.20618 7.875 2.84375C7.875 2.48132 7.58117 2.1875 7.21875 2.1875H1.53125ZM5.03125 6.5625C4.66882 6.5625 4.375 6.85632 4.375 7.21875C4.375 7.58118 4.66882 7.875 5.03125 7.875H11.5938C11.9562 7.875 12.25 7.58118 12.25 7.21875C12.25 6.85632 11.9562 6.5625 11.5938 6.5625H5.03125ZM5.03125 10.9375C4.66882 10.9375 4.375 11.2313 4.375 11.5938C4.375 11.9562 4.66882 12.25 5.03125 12.25H11.5938C11.9562 12.25 12.25 11.9562 12.25 11.5938C12.25 11.2313 11.9562 10.9375 11.5938 10.9375H5.03125ZM2.625 7C2.625 7.48324 2.23324 7.875 1.75 7.875C1.26675 7.875 0.875 7.48324 0.875 7C0.875 6.51676 1.26675 6.125 1.75 6.125C2.23324 6.125 2.625 6.51676 2.625 7ZM1.75 12.25C2.23324 12.25 2.625 11.8583 2.625 11.375C2.625 10.8917 2.23324 10.5 1.75 10.5C1.26675 10.5 0.875 10.8917 0.875 11.375C0.875 11.8583 1.26675 12.25 1.75 12.25Z" fill="white"/>
<path d="M11.6497 4.30298L9.68586 2.11486C9.55946 1.97402 9.65942 1.75 9.84866 1.75H13.7763C13.9656 1.75 14.0655 1.97402 13.9391 2.11486L11.9753 4.30298C11.8884 4.39984 11.7366 4.39984 11.6497 4.30298Z" fill="white"/>
</svg>
