<svg width="14" height="14" viewBox="0 0 14 14" fill="none" xmlns="http://www.w3.org/2000/svg">
<path fill-rule="evenodd" clip-rule="evenodd" d="M5.57243 0.883217C5.93032 0.940479 6.17402 1.27702 6.11676 1.63491L5.74835 3.93748H9.23166L9.63325 1.42754C9.69051 1.06966 10.0271 0.825956 10.3849 0.883217C10.7428 0.940479 10.9865 1.27702 10.9293 1.63491L10.5609 3.93748H12.4688C12.8312 3.93748 13.125 4.2313 13.125 4.59373C13.125 4.95617 12.8312 5.24998 12.4688 5.24998H10.3508L9.79085 8.74998H12.0312C12.3937 8.74998 12.6875 9.0438 12.6875 9.40623C12.6875 9.76867 12.3937 10.0625 12.0312 10.0625H9.58085L9.17926 12.5724C9.122 12.9303 8.78546 13.174 8.42757 13.1167C8.06969 13.0595 7.82598 12.7229 7.88325 12.365L8.25166 10.0625H4.76835L4.36676 12.5724C4.3095 12.9303 3.97296 13.174 3.61507 13.1167C3.25719 13.0595 3.01348 12.7229 3.07075 12.365L3.43916 10.0625H1.53125C1.16881 10.0625 0.875 9.76867 0.875 9.40623C0.875 9.0438 1.16881 8.74998 1.53125 8.74998H3.64916L4.20916 5.24998H1.96875C1.60631 5.24998 1.3125 4.95617 1.3125 4.59373C1.3125 4.2313 1.60631 3.93748 1.96875 3.93748H4.41916L4.82075 1.42754C4.87801 1.06966 5.21455 0.825956 5.57243 0.883217ZM8.46166 8.74998L9.02166 5.24998H5.53835L4.97835 8.74998H8.46166Z" fill="white"/>
</svg>
