<svg width="14" height="14" viewBox="0 0 14 14" fill="none" xmlns="http://www.w3.org/2000/svg">
<path fill-rule="evenodd" clip-rule="evenodd" d="M3.28125 0C2.43556 0 1.75 0.685563 1.75 1.53125V12.4688C1.75 13.3144 2.43556 14 3.28125 14H10.7188C11.5644 14 12.25 13.3144 12.25 12.4688V1.53125C12.25 0.685564 11.5644 0 10.7188 0H3.28125ZM3.0625 1.53125C3.0625 1.41044 3.16044 1.3125 3.28125 1.3125H10.7188C10.8396 1.3125 10.9375 1.41044 10.9375 1.53125V12.4688C10.9375 12.5896 10.8396 12.6875 10.7188 12.6875H3.28125C3.16044 12.6875 3.0625 12.5896 3.0625 12.4688V1.53125ZM7 11.375C7.48325 11.375 7.875 10.9833 7.875 10.5C7.875 10.0167 7.48325 9.625 7 9.625C6.51675 9.625 6.125 10.0167 6.125 10.5C6.125 10.9833 6.51675 11.375 7 11.375Z" fill="white"/>
</svg>
