<svg width="14" height="14" viewBox="0 0 14 14" fill="none" xmlns="http://www.w3.org/2000/svg">
<g clip-path="url(#clip0_15429_24100)">
<path fill-rule="evenodd" clip-rule="evenodd" d="M2.97833 2.97833C0.757223 5.19944 0.757223 8.80056 2.97833 11.0217C5.19944 13.2428 8.80056 13.2428 11.0217 11.0217C13.2428 8.80056 13.2428 5.19944 11.0217 2.97833C8.80056 0.757223 5.19944 0.757223 2.97833 2.97833ZM2.05025 11.9497C-0.683417 9.21608 -0.683417 4.78392 2.05025 2.05025C4.78392 -0.683417 9.21608 -0.683417 11.9497 2.05025C14.6834 4.78392 14.6834 9.21608 11.9497 11.9497C9.21608 14.6834 4.78392 14.6834 2.05025 11.9497Z" fill="white"/>
<path d="M7 4C7.79565 4 8.55871 4.31607 9.12132 4.87868C9.68393 5.44129 10 6.20435 10 7C10 7.79565 9.68393 8.55871 9.12132 9.12132C8.55871 9.68393 7.79565 10 7 10C6.20435 10 5.44129 9.68393 4.87868 9.12132C4.31607 8.55871 4 7.79565 4 7C4 6.20435 4.31607 5.44129 4.87868 4.87868C5.44129 4.31607 6.20435 4 7 4Z" fill="white"/>
</g>
<defs>
<clipPath id="clip0_15429_24100">
<rect width="14" height="14" fill="white"/>
</clipPath>
</defs>
</svg>
