<svg width="14" height="14" viewBox="0 0 14 14" fill="none" xmlns="http://www.w3.org/2000/svg">
<g clip-path="url(#clip0_15429_24103)">
<path d="M13.125 11.5937C13.125 11.2313 12.8312 10.9375 12.4688 10.9375H8.96875C8.60631 10.9375 8.3125 11.2313 8.3125 11.5937C8.3125 11.9562 8.60631 12.25 8.96875 12.25H12.4688C12.8312 12.25 13.125 11.9562 13.125 11.5937Z" fill="white"/>
<path d="M5.6875 10.9375V9.84375C5.6875 9.48131 5.98131 9.1875 6.34375 9.1875C6.70619 9.1875 7 9.48131 7 9.84375L7 13.3437C7 13.7062 6.70619 14 6.34375 14C5.98131 14 5.6875 13.7062 5.6875 13.3437V12.25L1.53125 12.25C1.16881 12.25 0.875 11.9562 0.875 11.5938C0.875 11.2313 1.16881 10.9375 1.53125 10.9375L5.6875 10.9375Z" fill="white"/>
<path d="M6.78125 6.34375C7.14369 6.34375 7.4375 6.63756 7.4375 7C7.4375 7.36244 7.14369 7.65625 6.78125 7.65625L1.53125 7.65625C1.16881 7.65625 0.875 7.36244 0.875 7C0.875 6.63756 1.16881 6.34375 1.53125 6.34375L6.78125 6.34375Z" fill="white"/>
<path d="M13.125 7C13.125 6.63756 12.8312 6.34375 12.4688 6.34375L10.0625 6.34375V5.25C10.0625 4.88756 9.76873 4.59375 9.40629 4.59375C9.04385 4.59375 8.75004 4.88756 8.75004 5.25V6.99265L8.75 7L8.75004 7.00735L8.75004 8.75C8.75004 9.11244 9.04385 9.40625 9.40629 9.40625C9.76873 9.40625 10.0625 9.11244 10.0625 8.75V7.65625L12.4688 7.65625C12.8312 7.65625 13.125 7.36244 13.125 7Z" fill="white"/>
<path d="M5.25 2.40625L5.25 4.15625C5.25 4.51869 4.95619 4.8125 4.59375 4.8125C4.23131 4.8125 3.9375 4.51869 3.9375 4.15625L3.9375 3.0625H1.53125C1.16881 3.0625 0.875001 2.76869 0.875001 2.40625C0.875001 2.04381 1.16881 1.75 1.53125 1.75H3.9375L3.9375 0.65625C3.9375 0.293813 4.23131 1.58426e-08 4.59375 0C4.95619 -1.58426e-08 5.25 0.293813 5.25 0.65625L5.25 2.40625Z" fill="white"/>
<path d="M13.125 2.40625C13.125 2.04381 12.8312 1.75 12.4688 1.75H7.21875C6.85631 1.75 6.5625 2.04381 6.5625 2.40625C6.5625 2.76869 6.85631 3.0625 7.21875 3.0625H12.4688C12.8312 3.0625 13.125 2.76869 13.125 2.40625Z" fill="white"/>
</g>
<defs>
<clipPath id="clip0_15429_24103">
<rect width="14" height="14" fill="white" transform="matrix(1 0 0 -1 0 14)"/>
</clipPath>
</defs>
</svg>
