<svg width="14" height="14" viewBox="0 0 14 14" fill="none" xmlns="http://www.w3.org/2000/svg">
<g clip-path="url(#clip0_15429_24075)">
<path d="M6.87279 8.91531L4.42807 6.43648C4.31471 6.32154 4.39499 6.125 4.55531 6.125H9.44467C9.60503 6.125 9.68529 6.32153 9.57192 6.43648L7.12727 8.91531C7.05699 8.98656 6.94306 8.98656 6.87279 8.91531Z" fill="white"/>
<path fill-rule="evenodd" clip-rule="evenodd" d="M2.40625 0.875C1.56056 0.875 0.875 1.56056 0.875 2.40625V11.5938C0.875 12.4394 1.56056 13.125 2.40625 13.125H11.5938C12.4394 13.125 13.125 12.4394 13.125 11.5938V2.40625C13.125 1.56056 12.4394 0.875 11.5938 0.875H2.40625ZM2.1875 2.40625C2.1875 2.28544 2.28544 2.1875 2.40625 2.1875H11.5938C11.7146 2.1875 11.8125 2.28544 11.8125 2.40625V11.5938C11.8125 11.7146 11.7146 11.8125 11.5938 11.8125H2.40625C2.28544 11.8125 2.1875 11.7146 2.1875 11.5938V2.40625Z" fill="white"/>
</g>
<defs>
<clipPath id="clip0_15429_24075">
<rect width="14" height="14" fill="white"/>
</clipPath>
</defs>
</svg>
