<svg width="14" height="14" viewBox="0 0 14 14" fill="none" xmlns="http://www.w3.org/2000/svg">
<g clip-path="url(#clip0_15429_24043)">
<path fill-rule="evenodd" clip-rule="evenodd" d="M1.75 1.50006C1.6837 1.50006 1.62011 1.5264 1.57322 1.57328C1.52634 1.62017 1.5 1.68376 1.5 1.75007V9.25035C1.5 9.38835 1.612 9.50036 1.75 9.50036H3.75C3.94891 9.50036 4.13968 9.57936 4.28033 9.72006C4.42098 9.86067 4.5 10.0515 4.5 10.2504V12.4405L7.22 9.72037C7.36052 9.57966 7.55115 9.50056 7.75 9.50036H12.25C12.3163 9.50036 12.3799 9.47406 12.4268 9.42715C12.4737 9.38025 12.5 9.31665 12.5 9.25035V1.75007C12.5 1.68376 12.4737 1.62017 12.4268 1.57328C12.3799 1.5264 12.3163 1.50006 12.25 1.50006H1.75ZM0 1.75007C0 0.784029 0.784 0 1.75 0H12.25C13.216 0 14 0.784029 14 1.75007V9.25035C14 9.71446 13.8156 10.1596 13.4874 10.4878C13.1592 10.816 12.7141 11.0004 12.25 11.0004H8.06L5.487 13.5735C5.28324 13.7772 5.02367 13.9158 4.74111 13.972C4.45854 14.0282 4.16567 13.9993 3.8995 13.8891C3.63333 13.7789 3.40581 13.5922 3.24571 13.3527C3.08561 13.1132 3.0001 12.8316 3 12.5435V11.0004H1.75C1.28587 11.0004 0.84075 10.816 0.51256 10.4878C0.18437 10.1596 0 9.71446 0 9.25035V1.75007Z" fill="white"/>
<path d="M3.65625 3.25C3.29382 3.25 3 3.54382 3 3.90625C3 4.26868 3.29382 4.5625 3.65625 4.5625H9.78125C10.1437 4.5625 10.4375 4.26868 10.4375 3.90625C10.4375 3.54382 10.1437 3.25 9.78125 3.25H3.65625Z" fill="white"/>
<path d="M3 6.53125C3 6.16882 3.29382 5.875 3.65625 5.875H7.15625C7.51868 5.875 7.8125 6.16882 7.8125 6.53125C7.8125 6.89368 7.51868 7.1875 7.15625 7.1875H3.65625C3.29382 7.1875 3 6.89368 3 6.53125Z" fill="white"/>
</g>
<defs>
<clipPath id="clip0_15429_24043">
<rect width="14" height="14" fill="white"/>
</clipPath>
</defs>
</svg>
