<svg width="16" height="16" viewBox="0 0 16 16" fill="none" xmlns="http://www.w3.org/2000/svg">
<path d="M3.80273 11.667C4.00967 12.0312 4.25315 12.3767 4.53418 12.6953L4.73242 12.9092C5.1544 13.3441 5.6363 13.7098 6.15918 14H1.5C0.671573 14 0 13.3284 0 12.5V11.667H3.80273Z" fill="#FFADDA"/>
<path d="M12.1787 14H12.1123C12.1266 13.9921 12.1411 13.9846 12.1553 13.9766L12.1787 14Z" fill="white"/>
<path d="M13.1934 11.7861L13.9951 12.5879C13.9672 13.0697 13.7139 13.4901 13.3369 13.7441L12.2861 12.6934C11.2541 13.4946 9.95508 13.8726 8.6543 13.75C7.35357 13.6275 6.14838 13.0131 5.28418 12.0332C5.18018 11.9153 5.0823 11.7929 4.99023 11.667H6.76172C7.03604 11.8819 7.33784 12.0603 7.66113 12.1943C8.12848 12.3879 8.62989 12.4883 9.13574 12.4883C9.64147 12.4883 10.1421 12.3878 10.6094 12.1943C10.9329 12.0603 11.2352 11.882 11.5098 11.667H13.2812C13.2522 11.7068 13.2237 11.7471 13.1934 11.7861Z" fill="white"/>
<path d="M5.00879 4.0957L4.79688 4.29688C3.76219 5.33158 3.13438 6.69994 3.01953 8.15234L3.00293 8.44434C2.98734 8.94269 3.03325 9.43686 3.13574 9.91699H0V4.08301H5.02344C5.01866 4.08733 5.01356 4.09137 5.00879 4.0957Z" fill="#FFADDA"/>
<path d="M11.1523 6.61914L11.3418 6.82812C11.7577 7.33566 11.9883 7.97382 11.9883 8.63574C11.9883 8.9165 11.9464 9.19519 11.8652 9.46289L11.7705 9.72754C11.7439 9.79184 11.7147 9.85496 11.6836 9.91699H11.083V6.55566C11.1058 6.57705 11.1301 6.59695 11.1523 6.61914Z" fill="#FFADDA"/>
<path d="M11.083 3.88281C11.6088 4.09812 12.0995 4.40171 12.5332 4.78418C13.2109 5.38188 13.7138 6.14267 14 6.98535V9.91699H12.7676C12.9128 9.50582 12.9883 9.07278 12.9883 8.63574C12.9883 7.6141 12.5818 6.63452 11.8594 5.91211C11.6252 5.67795 11.3639 5.47719 11.083 5.3125V3.88281Z" fill="white"/>
<path d="M9.33301 4.78809C9.26749 4.78472 9.20166 4.7832 9.13574 4.7832C8.11411 4.78322 7.13451 5.1897 6.41211 5.91211C5.68971 6.63452 5.2832 7.6141 5.2832 8.63574C5.28321 9.07278 5.35866 9.50583 5.50391 9.91699H4.16309C4.04292 9.45033 3.98761 8.96537 4.00293 8.47559C4.04384 7.16968 4.58005 5.92778 5.50391 5.00391C5.87674 4.63108 6.30201 4.3225 6.76172 4.08301H9.33301V4.78809Z" fill="white"/>
<path d="M9.33301 5.79199V9.91699H6.58984L6.50098 9.72754C6.35766 9.38154 6.28321 9.01027 6.2832 8.63574C6.2832 7.87931 6.58428 7.15401 7.11914 6.61914L7.32812 6.42969C7.83565 6.0138 8.47383 5.78322 9.13574 5.7832C9.20179 5.7832 9.26754 5.78745 9.33301 5.79199Z" fill="#FFADDA"/>
<path d="M12.5 0C13.3284 3.68875e-07 14 0.671573 14 1.5V4.89648C13.82 4.66237 13.6231 4.43998 13.4092 4.23242L13.1953 4.03418C12.5742 3.48641 11.8547 3.07546 11.083 2.81738V0H12.5Z" fill="#FFADDA"/>
<path d="M9.33301 2.33301H0V1.5C3.68146e-08 0.671573 0.671573 3.68149e-08 1.5 0H9.33301V2.33301Z" fill="#FFADDA"/>
<path fill-rule="evenodd" clip-rule="evenodd" d="M12.9879 8.6357C12.9879 9.14157 12.8882 9.64249 12.6946 10.1099C12.501 10.5772 12.2173 11.0019 11.8596 11.3596C11.5019 11.7173 11.0772 12.001 10.6098 12.1947C10.1425 12.3882 9.64157 12.4879 9.1357 12.4879C8.62983 12.4879 8.12891 12.3882 7.66154 12.1947C7.19418 12.001 6.76952 11.7173 6.41182 11.3596C6.05411 11.0019 5.77037 10.5772 5.57677 10.1099C5.38318 9.64249 5.28355 9.14157 5.28355 8.6357C5.28355 7.61404 5.68939 6.63424 6.41182 5.91182C7.13423 5.1894 8.11404 4.78355 9.1357 4.78355C10.1573 4.78355 11.1372 5.1894 11.8596 5.91182C12.582 6.63424 12.9879 7.61404 12.9879 8.6357ZM12.2859 12.6933C11.2539 13.4946 9.95524 13.8723 8.65444 13.7497C7.35363 13.6272 6.14843 13.0135 5.28419 12.0336C4.41994 11.0538 3.96162 9.78132 4.00252 8.47541C4.04343 7.16949 4.58049 5.92824 5.50436 5.00436C6.42824 4.08049 7.66948 3.54343 8.97541 3.50252C10.2813 3.46162 11.5537 3.91994 12.5336 4.78419C13.5135 5.64843 14.1272 6.85364 14.2497 8.15444C14.3723 9.45524 13.9946 10.7538 13.1933 11.7859L15.7956 14.3883C15.8587 14.4471 15.9093 14.5179 15.9444 14.5967C15.9795 14.6755 15.9984 14.7605 15.9999 14.8467C16.0014 14.9329 15.9855 15.0185 15.9532 15.0984C15.921 15.1784 15.8729 15.251 15.8119 15.3119C15.751 15.3729 15.6784 15.421 15.5984 15.4532C15.5185 15.4855 15.4329 15.5014 15.3467 15.4999C15.2605 15.4984 15.1754 15.4795 15.0967 15.4444C15.0179 15.4093 14.9471 15.3587 14.8883 15.2956L12.2859 12.6933Z" fill="white"/>
</svg>
