<svg width="16" height="16" viewBox="0 0 16 16" fill="none" xmlns="http://www.w3.org/2000/svg">
<path d="M14 14C14 14.8284 13.3284 15.5 12.5 15.5H1.5C0.671573 15.5 0 14.8284 0 14V13.167H14V14Z" fill="#FFADDA"/>
<path d="M5.98535 5.58301C5.87203 5.74641 5.7778 5.9225 5.71094 6.11035L5.66699 6.24707L5.06152 8.36621C4.90175 8.92607 5.05812 9.52879 5.46973 9.94043L5.63281 10.082C6.03152 10.3855 6.55376 10.4877 7.04395 10.3477L9.16309 9.74316L9.2998 9.69922C9.31117 9.69517 9.32172 9.6888 9.33301 9.68457V11.417H0V5.58301H5.98535Z" fill="#FFADDA"/>
<path d="M14 11.417H11.083V8.22363L14 5.30664V11.417Z" fill="#FFADDA"/>
<path d="M7.7207 6.75098C7.70114 6.77052 7.68632 6.79562 7.67871 6.82227L7.31543 8.09473L8.58789 7.73047C8.61444 7.72293 8.63865 7.70899 8.6582 7.68945L9.33301 7.01465V8.54785C9.20179 8.65425 9.0509 8.73462 8.8877 8.78125L6.76953 9.38672C6.55882 9.44696 6.33172 9.38824 6.17676 9.2334C6.02182 9.07843 5.96326 8.85135 6.02344 8.64062L6.62891 6.52148C6.68753 6.31655 6.79747 6.12929 6.94824 5.97852L7.34375 5.58301H8.88867L7.7207 6.75098Z" fill="white"/>
<path d="M12.5 1.5C12.643 1.5 12.7811 1.5212 12.9121 1.55859L12.5088 1.96289L13.4473 2.90137L13.8945 2.45215C13.9613 2.62207 14 2.80636 14 3V3.89258L11.083 6.80957V5.26465L12.7559 3.59277L11.8174 2.6543L11.083 3.38867V1.84375L11.4268 1.5H12.5Z" fill="white"/>
<path d="M9.33301 2.17969L7.67969 3.83301H0V3C6.44256e-08 2.17157 0.671573 1.5 1.5 1.5H9.33301V2.17969Z" fill="#FFADDA"/>
<path d="M9.33301 3.83301H9.09375L9.33301 3.59375V3.83301Z" fill="white"/>
<path fill-rule="evenodd" clip-rule="evenodd" d="M14.3345 0.367672C13.8443 -0.122557 13.0495 -0.122558 12.5593 0.367672L6.94796 5.97894C6.7971 6.12979 6.68719 6.31666 6.62859 6.52173L6.02323 8.64049C5.96302 8.85125 6.02181 9.07804 6.1768 9.23303C6.33178 9.38801 6.55862 9.44686 6.76942 9.38657L8.88811 8.78124C9.09322 8.72264 9.28003 8.61275 9.43089 8.46189L15.0422 2.85059C15.5324 2.36037 15.5324 1.56555 15.0422 1.07533L14.3345 0.367672ZM13.3317 1.14009C13.3953 1.07646 13.4985 1.07646 13.5621 1.14009L14.2698 1.84775C14.3334 1.91138 14.3334 2.01454 14.2698 2.07817L13.4469 2.90104L12.5088 1.96296L13.3317 1.14009ZM11.8175 2.65424L12.7556 3.59232L8.65846 7.68944C8.63888 7.70906 8.61463 7.72333 8.58801 7.73089L7.31529 8.09456L7.67892 6.82184C7.68653 6.79518 7.7008 6.77094 7.72038 6.75139L11.8175 2.65424Z" fill="white"/>
</svg>
